<?xml version="1.0" standalone="no"?>
<!DOCTYPE svg PUBLIC "-//W3C//DTD SVG 20010904//EN"
 "http://www.w3.org/TR/2001/REC-SVG-20010904/DTD/svg10.dtd">
<svg version="1.0" xmlns="http://www.w3.org/2000/svg"
 width="203.000000pt" height="40.000000pt" viewBox="0 0 203.000000 40.000000"
 preserveAspectRatio="xMidYMid meet">
<metadata>
Created by potrace 1.15, written by Peter Selinger 2001-2017
</metadata>
<g transform="translate(0.000000,40.000000) scale(0.100000,-0.100000)"
fill="#000000" stroke="none">
<path d="M114 315 c-16 -39 -10 -81 13 -94 13 -7 12 -14 -7 -50 -12 -24 -18
-46 -15 -49 7 -8 20 8 48 59 15 26 20 30 28 18 13 -21 11 -67 -3 -72 -7 -3 -3
-6 10 -6 22 -1 22 1 22 114 l0 115 -41 0 c-36 0 -41 -3 -55 -35z"/>
</g>
</svg>
